# xmcd CD database file
#
# Track frame offsets:
#	150
#	15856
#	29310
#	46600
#	60077
#	75737
#	93809
#	104851
#	119330
#	136600
#	153054
#	167709
#	183814
#	189655
#	203792
#	214096
#	227156
#	240505
#	251617
#	265986
#	278414
#	295732
#	311168
#	328468
#	342878
#
# Disc length: 4774 seconds
#
# Revision: 0
# Processed by: cddbd v1.5.2PL0 Copyright (c) Steve Scherf et al.
# Submitted via: CDex 1.70beta2
#
DISCID=4d12a419
DTITLE=Bing Crosby - This Is What's Life Is All About (1975) - Seasons (1977)
DYEAR=1900
DGENRE=Jazz
TTITLE0=This Is What's Life Is All About
TTITLE1=Breezin' Along Withe The Breeze
TTITLE2=No Time At All
TTITLE3=I Love To Dance Like They Used To Dance
TTITLE4=Have A Nice Day
TTITLE5=Roamin' In The Gloamin'
TTITLE6=The Best Things In Life Are Free
TTITLE7=Some Sunny Day
TTITLE8=Bon Vivant
TTITLE9=Good Companions
TTITLE10=Send In The Clowns
TTITLE11=The Good Old Times
TTITLE12=That's Waht Life Is All About (reprise)
TTITLE13=Seasons
TTITLE14=On The Very First Day Of The Year
TTITLE15=June In January
TTITLE16=Spring Will Be A Little Late This Year
TTITLE17=April Showers
TTITLE18=June Is Bustin All Over
TTITLE19=In The Good Old Summertime
TTITLE20=Summer Wind
TTITLE21=Autumn in New York
TTITLE22=September Song
TTITLE23=Sleigh Ride
TTITLE24=Yesterday When I Was Young
EXTD=
EXTT0=
EXTT1=
EXTT2=
EXTT3=
EXTT4=
EXTT5=
EXTT6=
EXTT7=
EXTT8=
EXTT9=
EXTT10=
EXTT11=
EXTT12=
EXTT13=
EXTT14=
EXTT15=
EXTT16=
EXTT17=
EXTT18=
EXTT19=
EXTT20=
EXTT21=
EXTT22=
EXTT23=
EXTT24=
PLAYORDER=
